# xmcd
# 
# Track frame offsets:
#     150
#     19255
#     49822
#     68511
#     102345
#     133402
#     152990
#     172458
#     212094
#     232351
# 
# Disc length: 3364
# 
# Revision: 1
# Processed by: cddbd v1.5.2PL0 Copyright (c) Steve Scherf et al.
# Submitted via: BonkEnc v1.0.8
# 
DISCID=9c0d220a
DTITLE=Mark Soskin, Donny McCaslin, Fabian Gisler, Michael Hammer - One
DYEAR=2005
DGENRE=Contemporary Jazz
TTITLE0=Children of The Night
TTITLE1=Minor Rumblings
TTITLE2=United
TTITLE3=Whats New
TTITLE4=Song For My Father
TTITLE5=Ramba Samba
TTITLE6=Legends of The North
TTITLE7=I'll Drink to That
TTITLE8=In Walked Bud
TTITLE9=O Pato
EXTD=YEAR: 2005
EXTT0=
EXTT1=
EXTT2=
EXTT3=
EXTT4=
EXTT5=
EXTT6=
EXTT7=
EXTT8=
EXTT9=
PLAYORDER=
